<?xml version="1.0" standalone="no"?>
<!DOCTYPE svg PUBLIC "-//W3C//DTD SVG 20010904//EN"
 "http://www.w3.org/TR/2001/REC-SVG-20010904/DTD/svg10.dtd">
<svg version="1.0" xmlns="http://www.w3.org/2000/svg"
 width="362.000000pt" height="325.000000pt" viewBox="0 0 362.000000 325.000000"
 preserveAspectRatio="xMidYMid meet">

<g transform="translate(0.000000,325.000000) scale(0.100000,-0.100000)"
fill="#000000" stroke="none">
<path d="M920 2735 c-481 -279 -885 -513 -898 -521 l-22 -14 0 -580 0 -579 98
-55 c54 -31 103 -56 109 -56 6 0 53 24 105 54 l93 54 3 463 2 464 699 403 698
402 187 -108 c103 -60 188 -112 187 -116 0 -4 -310 -186 -688 -405 l-688 -397
0 -815 0 -814 101 -58 101 -58 101 58 102 58 2 695 3 695 695 402 695 401 55
-31 c209 -118 316 -183 317 -192 1 -5 -308 -188 -685 -406 l-687 -397 -3 -350
-2 -351 97 -57 c54 -31 101 -58 104 -60 3 -2 50 23 105 54 l99 58 5 234 5 233
585 338 c322 186 588 339 593 339 4 0 7 -256 7 -569 l0 -570 98 -57 c53 -31
100 -58 103 -60 3 -2 50 23 105 54 l99 58 2 815 3 814 -892 515 c-491 283
-899 516 -908 518 -8 1 -409 -225 -890 -503z"/>
<path d="M2498 874 l-98 -56 0 -119 0 -118 98 -57 c53 -31 100 -58 103 -60 3
-2 50 23 105 54 l99 58 3 121 3 121 -96 56 c-53 31 -101 56 -108 56 -7 0 -56
-25 -109 -56z"/>
</g>
</svg>
