<?xml version="1.0" standalone="no"?>
<!DOCTYPE svg PUBLIC "-//W3C//DTD SVG 20010904//EN"
 "http://www.w3.org/TR/2001/REC-SVG-20010904/DTD/svg10.dtd">
<svg version="1.0" xmlns="http://www.w3.org/2000/svg"
 width="225.000000pt" height="225.000000pt" viewBox="0 0 225.000000 225.000000"
 preserveAspectRatio="xMidYMid meet">

<g transform="translate(0.000000,225.000000) scale(0.100000,-0.100000)"
fill="#000000" stroke="none">
<path d="M742 1658 c-5 -7 -47 -110 -93 -228 -107 -278 -113 -341 -43 -452 28
-44 489 -397 519 -397 11 0 128 82 260 182 233 176 241 184 273 247 30 59 33
71 29 135 -3 58 -18 107 -88 289 -48 125 -92 224 -102 230 -34 21 -50 -6 -106
-178 l-54 -166 -211 0 -211 0 -54 163 c-29 89 -58 168 -63 175 -6 6 -18 12
-28 12 -10 0 -22 -6 -28 -12z"/>
</g>
</svg>
